<svg width="20" height="18" viewBox="0 0 20 18" fill="none" xmlns="http://www.w3.org/2000/svg">
<path d="M19.9608 2.80824C19.2121 3.1379 18.4189 3.3555 17.6068 3.45405C18.4618 2.94011 19.102 2.13414 19.4092 1.18498C18.6167 1.64746 17.7384 1.98411 16.8035 2.1716C16.1866 1.51199 15.3693 1.0745 14.4783 0.927073C13.5873 0.779646 12.6726 0.930531 11.8761 1.3563C11.0797 1.78206 10.4461 2.45888 10.0738 3.28166C9.70147 4.10444 9.61123 5.02713 9.81709 5.90645C6.4089 5.74562 3.38819 4.10902 1.36661 1.63496C0.998953 2.25978 0.807186 2.97243 0.811633 3.69737C0.811633 5.12231 1.5366 6.37476 2.63489 7.11057C1.98397 7.08985 1.34742 6.91385 0.778301 6.59725V6.64808C0.777932 7.59504 1.10518 8.51296 1.70452 9.24611C2.30386 9.97926 3.13838 10.4825 4.0665 10.6704C3.4651 10.8316 2.83523 10.8558 2.22324 10.7412C2.48677 11.5562 2.99806 12.2685 3.68581 12.7789C4.37355 13.2894 5.20344 13.5724 6.05975 13.5886C4.60938 14.7268 2.8186 15.3446 0.974959 15.3427C0.649973 15.3427 0.32582 15.3236 0 15.2869C1.87968 16.4904 4.06526 17.1293 6.29724 17.1276C13.8419 17.1276 17.9626 10.8812 17.9626 5.47313C17.9626 5.29897 17.9626 5.12315 17.9501 4.94815C18.755 4.36888 19.4494 3.64971 20 2.82491L19.9608 2.80824Z" fill="#fcfefe"/>
</svg>
